<?xml version="1.0" standalone="no"?>
<!DOCTYPE svg PUBLIC "-//W3C//DTD SVG 20010904//EN"
 "http://www.w3.org/TR/2001/REC-SVG-20010904/DTD/svg10.dtd">
<svg version="1.0" xmlns="http://www.w3.org/2000/svg"
 width="1024.000000pt" height="1024.000000pt" viewBox="0 0 1024.000000 1024.000000"
 preserveAspectRatio="xMidYMid meet">
<metadata>
Created by potrace 1.11, written by Peter Selinger 2001-2013
</metadata>
<g transform="translate(0.000000,1024.000000) scale(0.100000,-0.100000)"
fill="#000000" stroke="none">
<path d="M6515 8394 c-185 -7 -580 -25 -885 -40 -253 -13 -528 -16 -1395 -15
-1078 2 -1323 -3 -1645 -35 -516 -50 -883 -152 -1140 -319 -105 -68 -289 -256
-372 -380 -211 -316 -319 -712 -358 -1310 -28 -452 -43 -1934 -22 -2185 57
-654 220 -1076 528 -1370 44 -42 106 -92 139 -112 218 -132 608 -221 1195
-272 352 -31 528 -38 1163 -43 648 -6 1121 3 1692 32 149 7 271 12 272 11 2
-1 -25 -90 -58 -197 -248 -799 -309 -1100 -246 -1220 50 -95 165 -117 292 -55
66 31 170 105 260 184 155 136 445 402 517 475 51 51 95 87 106 87 23 0 80
-43 232 -175 58 -50 148 -123 200 -162 52 -39 157 -122 233 -185 77 -63 164
-130 194 -148 129 -79 237 -70 307 24 18 23 21 42 21 119 0 80 -7 113 -48 254
-55 186 -149 466 -266 795 -45 125 -81 230 -81 233 0 3 24 5 53 5 70 0 305 26
420 45 343 59 588 171 714 325 205 250 392 913 477 1685 37 334 41 438 39 979
-2 559 -13 896 -38 1142 -49 489 -156 831 -353 1129 -82 125 -273 319 -387
394 -240 157 -534 247 -945 287 -143 13 -639 25 -815 18z m745 -314 c382 -36
653 -114 852 -246 139 -93 302 -284 390 -458 105 -207 177 -494 212 -836 35
-339 57 -1294 37 -1620 -59 -978 -278 -1856 -503 -2021 -94 -68 -242 -122
-433 -158 -116 -22 -255 -40 -255 -33 0 2 29 37 64 77 212 244 270 416 269
810 0 313 -53 536 -166 707 -46 68 -156 177 -232 229 -273 186 -688 280 -1106
250 -244 -18 -419 -61 -593 -147 -330 -163 -544 -451 -643 -864 -33 -140 -43
-424 -19 -540 19 -91 68 -195 129 -275 43 -58 196 -211 266 -268 18 -15 32
-29 30 -31 -6 -6 -423 -25 -809 -37 -411 -13 -1568 -7 -1820 10 -702 48 -1106
115 -1348 227 -174 80 -359 325 -455 605 -104 299 -141 615 -141 1184 0 457
20 1419 34 1629 31 460 101 772 227 1019 71 139 147 240 259 347 72 68 112 96
199 141 273 141 657 216 1265 249 116 6 641 10 1280 9 597 0 1128 2 1180 5 83
6 835 40 1085 50 153 6 624 -3 745 -14z m-412 -3621 c145 -24 315 -81 417
-140 210 -120 298 -280 326 -601 13 -146 1 -348 -27 -454 -39 -152 -213 -363
-364 -443 -105 -56 -198 -118 -215 -145 -37 -57 -32 -86 60 -341 174 -480 325
-922 325 -950 0 -3 -15 5 -32 20 -18 14 -85 66 -148 115 -63 48 -173 138 -245
200 -214 184 -295 226 -412 217 -92 -7 -144 -38 -273 -162 -222 -212 -561
-518 -567 -511 -12 11 153 585 288 1006 82 257 93 314 69 361 -29 56 -86 111
-192 186 -209 149 -349 287 -403 398 -86 176 -24 578 127 833 68 115 218 252
346 316 116 59 307 105 487 120 97 8 318 -5 433 -25z"/>
<path d="M5970 6833 c-382 -8 -1462 -29 -2400 -47 -1881 -36 -1742 -28 -1791
-97 -47 -67 -30 -158 41 -206 44 -30 -99 -31 2729 22 2935 55 2638 47 2683 69
103 50 105 212 4 260 -42 20 -248 20 -1266 -1z"/>
<path d="M5450 5638 c-261 -5 -1062 -19 -1780 -32 -1440 -24 -1342 -18 -1391
-87 -47 -67 -30 -158 41 -206 31 -22 43 -23 209 -23 158 0 3479 54 3846 63
166 4 196 12 236 68 47 67 30 158 -41 207 -33 22 -37 22 -339 20 -168 -1 -520
-5 -781 -10z"/>
</g>
</svg>
