<?xml version="1.0" standalone="no"?>
<!DOCTYPE svg PUBLIC "-//W3C//DTD SVG 20010904//EN"
 "http://www.w3.org/TR/2001/REC-SVG-20010904/DTD/svg10.dtd">
<svg version="1.0" xmlns="http://www.w3.org/2000/svg"
 width="1024.000000pt" height="1024.000000pt" viewBox="0 0 1024.000000 1024.000000"
 preserveAspectRatio="xMidYMid meet">
<metadata>
Created by potrace 1.11, written by Peter Selinger 2001-2013
</metadata>
<g transform="translate(0.000000,1024.000000) scale(0.100000,-0.100000)"
fill="#000000" stroke="none">
<path d="M4895 8863 c-298 -21 -653 -102 -937 -217 -630 -253 -1087 -660
-1362 -1215 -308 -622 -338 -1401 -81 -2057 112 -286 265 -531 491 -788 21
-23 256 -450 545 -991 416 -775 508 -955 503 -975 -14 -54 -20 -180 -12 -290
9 -143 61 -431 93 -525 49 -139 149 -251 278 -310 119 -55 432 -97 703 -95 93
1 195 -3 228 -9 118 -21 436 -34 513 -22 83 15 174 55 227 101 112 99 202 303
267 610 38 176 50 400 26 487 -11 42 -12 56 -2 70 7 10 296 495 642 1078 347
583 652 1093 678 1134 118 183 244 495 299 743 257 1151 -73 2087 -939 2668
-489 328 -1110 552 -1665 600 -107 9 -380 11 -495 3z m605 -318 c485 -75 974
-263 1366 -524 337 -224 557 -465 714 -786 65 -133 130 -317 130 -369 0 -59
-94 -160 -204 -219 -88 -47 -296 -17 -547 78 -117 45 -177 78 -382 209 -188
120 -249 152 -372 195 -122 44 -211 61 -308 61 -128 0 -240 -33 -527 -156
-164 -69 -346 -124 -440 -131 -99 -7 -194 9 -361 63 -136 45 -196 73 -429 197
-284 150 -635 239 -894 223 -92 -5 -242 -32 -343 -62 -13 -3 -23 -2 -23 2 0
15 100 178 169 274 78 110 255 297 365 386 395 319 901 517 1461 574 133 13
501 4 625 -15z m-1998 -1385 c213 -44 401 -116 593 -228 164 -95 259 -139 410
-190 185 -61 267 -75 420 -70 113 5 147 10 255 42 69 21 184 62 255 91 334
139 420 163 528 145 162 -26 264 -71 482 -213 93 -61 215 -135 270 -163 236
-123 594 -212 746 -185 77 13 170 56 244 112 30 23 58 39 61 36 10 -9 15 -291
7 -357 l-8 -65 -70 -37 c-38 -21 -113 -52 -165 -69 -137 -45 -237 -44 -422 5
-145 37 -215 64 -445 169 -201 92 -544 223 -635 241 -139 29 -218 18 -390 -55
-364 -152 -486 -184 -698 -184 -125 1 -158 4 -241 27 -150 42 -343 115 -472
179 -220 111 -553 210 -774 231 -193 18 -466 -17 -704 -92 -51 -16 -95 -27
-97 -25 -17 16 71 453 103 516 25 47 241 132 390 152 91 12 263 6 357 -13z
m58 -760 c157 -33 422 -127 568 -202 187 -97 393 -176 566 -219 171 -43 431
-34 618 20 77 23 329 118 418 158 103 47 158 57 238 43 86 -15 415 -144 647
-253 484 -228 771 -265 1070 -137 54 23 53 27 25 -110 -59 -277 -159 -521
-301 -736 -92 -138 -295 -344 -419 -427 -179 -117 -417 -183 -795 -217 -150
-14 -612 -14 -662 -1 -22 6 -167 10 -338 9 -166 -1 -345 4 -400 10 -55 7 -201
19 -325 27 -274 19 -368 29 -530 61 -228 44 -404 114 -539 214 -76 55 -234
215 -302 305 -194 253 -349 597 -413 915 -34 164 -54 413 -37 434 35 41 261
97 531 130 72 9 288 -5 380 -24z m74 -2210 c145 -50 394 -93 659 -114 92 -7
170 -15 172 -18 10 -9 336 -1200 331 -1205 -3 -3 -89 0 -191 7 -103 7 -216 10
-253 6 l-67 -6 -355 662 c-195 364 -356 668 -358 675 -4 16 -6 17 62 -7z
m3269 -77 c-15 -27 -195 -329 -399 -673 l-372 -625 -146 -3 c-134 -2 -146 -1
-146 15 1 10 49 279 109 598 l107 580 80 8 c355 34 532 63 684 115 116 39 115
39 83 -15z m-1618 -93 c253 -7 461 -13 462 -14 2 -2 -196 -1091 -213 -1175
l-5 -24 -195 5 c-108 3 -200 10 -204 14 -7 7 -298 1039 -336 1190 -6 22 -4 25
12 21 11 -3 226 -11 479 -17z m-590 -1465 c143 -8 296 -20 340 -26 53 -8 240
-13 551 -13 400 -1 474 -3 489 -16 16 -13 17 -27 12 -130 -12 -251 -119 -600
-206 -673 -17 -14 -49 -27 -74 -31 -56 -9 -344 10 -463 29 -61 10 -131 12
-233 8 -115 -4 -182 -1 -316 16 -206 26 -266 43 -315 90 -49 47 -72 113 -104
296 -50 291 -53 399 -10 446 20 23 2 22 329 4z"/>
</g>
</svg>
