<?xml version="1.0" standalone="no"?>
<!DOCTYPE svg PUBLIC "-//W3C//DTD SVG 20010904//EN"
 "http://www.w3.org/TR/2001/REC-SVG-20010904/DTD/svg10.dtd">
<svg version="1.0" xmlns="http://www.w3.org/2000/svg"
 width="1024.000000pt" height="1024.000000pt" viewBox="0 0 1024.000000 1024.000000"
 preserveAspectRatio="xMidYMid meet">
<metadata>
Created by potrace 1.11, written by Peter Selinger 2001-2013
</metadata>
<g transform="translate(0.000000,1024.000000) scale(0.100000,-0.100000)"
fill="#000000" stroke="none">
<path d="M5310 7729 c-1164 -36 -2979 -154 -3219 -210 -187 -43 -343 -145
-433 -283 -45 -70 -88 -198 -88 -265 0 -37 -7 -56 -30 -88 -37 -51 -45 -91
-65 -358 -63 -839 -81 -1793 -45 -2365 41 -646 129 -1110 269 -1424 108 -240
310 -435 596 -576 446 -218 911 -259 2080 -184 410 26 445 27 1485 28 921 2
1088 4 1233 19 733 74 1118 228 1415 567 267 305 414 695 476 1265 50 462 86
1867 56 2225 -41 493 -142 843 -321 1115 -30 44 -103 130 -164 190 -91 91
-123 117 -186 148 -222 106 -614 167 -1272 197 -259 11 -1401 11 -1787 -1z
m1385 -289 c449 -10 633 -19 900 -46 271 -27 506 -72 610 -119 57 -25 150
-118 161 -161 10 -39 -11 -164 -45 -261 -66 -192 -347 -633 -592 -928 -164
-198 -561 -572 -889 -836 -310 -250 -615 -454 -808 -540 -176 -79 -464 -157
-662 -180 -263 -30 -622 21 -868 122 -453 188 -1472 893 -1891 1310 -220 219
-476 563 -649 874 -81 144 -96 190 -90 270 12 146 115 243 301 285 56 12 400
44 817 74 978 73 1986 122 2795 135 231 4 434 8 450 9 17 1 224 -3 460 -8z
m1948 -805 c110 -394 130 -797 93 -1845 -24 -681 -42 -906 -91 -1175 -22 -120
-74 -319 -89 -344 -10 -15 -330 273 -557 499 -188 187 -283 294 -600 675 -261
314 -352 426 -348 429 200 148 694 611 871 815 230 265 533 720 643 965 22 47
42 83 46 78 4 -4 18 -47 32 -97z m-6813 -327 c215 -339 484 -660 735 -876 210
-180 554 -445 788 -607 48 -33 87 -63 87 -66 0 -7 -617 -613 -845 -830 -111
-105 -589 -550 -697 -648 l-46 -42 -15 68 c-41 181 -84 530 -109 883 -16 231
-16 1250 0 1560 27 510 36 640 46 640 2 0 28 -37 56 -82z m5187 -1873 c479
-583 654 -778 899 -1006 382 -356 447 -409 504 -409 11 0 20 -3 20 -6 0 -20
-121 -184 -186 -253 -240 -255 -557 -372 -1184 -438 -145 -15 -295 -17 -1215
-18 -577 -1 -1093 -4 -1145 -8 -666 -50 -1405 -68 -1645 -39 -416 50 -699 162
-919 362 -65 60 -123 141 -167 233 l-29 62 57 55 c32 30 204 190 383 356 331
307 571 536 1048 1001 l268 262 80 -51 c117 -76 321 -192 442 -252 154 -77
271 -121 409 -155 227 -55 318 -66 558 -65 245 0 329 11 553 69 345 91 591
211 935 457 67 48 125 87 129 85 4 -1 96 -110 205 -242z"/>
</g>
</svg>
