<?xml version="1.0" standalone="no"?>
<!DOCTYPE svg PUBLIC "-//W3C//DTD SVG 20010904//EN"
 "http://www.w3.org/TR/2001/REC-SVG-20010904/DTD/svg10.dtd">
<svg version="1.0" xmlns="http://www.w3.org/2000/svg"
 width="1024.000000pt" height="1024.000000pt" viewBox="0 0 1024.000000 1024.000000"
 preserveAspectRatio="xMidYMid meet">
<metadata>
Created by potrace 1.11, written by Peter Selinger 2001-2013
</metadata>
<g transform="translate(0.000000,1024.000000) scale(0.100000,-0.100000)"
fill="#000000" stroke="none">
<path d="M4740 9040 c-713 -46 -1383 -319 -1703 -695 -236 -276 -374 -629
-434 -1106 -24 -198 -25 -663 0 -817 46 -283 136 -569 253 -805 142 -283 299
-431 656 -612 84 -43 201 -109 261 -148 95 -62 106 -72 95 -88 -7 -9 -44 -52
-82 -95 -136 -156 -179 -242 -266 -529 -140 -466 -255 -1035 -290 -1435 -18
-209 -23 -762 -11 -1084 10 -256 14 -306 31 -343 49 -111 205 -112 262 -1 19
36 19 49 9 288 -14 311 -14 729 -1 960 24 422 115 920 261 1431 105 366 107
371 292 585 94 108 121 162 121 244 0 73 -24 131 -78 189 -47 51 -262 187
-440 279 -198 103 -313 178 -386 250 -175 177 -341 603 -396 1022 -19 149 -14
504 10 689 83 623 298 980 736 1219 386 211 985 336 1447 303 597 -44 1045
-236 1444 -619 119 -114 198 -209 291 -352 222 -340 361 -771 362 -1120 0
-184 -33 -317 -131 -518 -84 -173 -292 -475 -425 -617 -134 -143 -455 -398
-602 -477 -115 -62 -165 -140 -152 -236 8 -59 38 -109 121 -202 88 -98 132
-167 249 -386 250 -468 421 -894 490 -1219 64 -306 115 -803 146 -1434 12
-245 20 -270 90 -310 71 -39 157 -12 197 62 21 39 20 157 -3 537 -32 536 -82
972 -144 1251 -78 350 -295 870 -577 1377 -87 158 -114 198 -176 268 l-46 50
87 62 c240 170 471 367 584 499 154 179 353 479 444 667 109 226 148 393 148
626 -1 611 -322 1313 -795 1739 -199 179 -362 289 -593 402 -385 188 -882 279
-1356 249z"/>
</g>
</svg>
