<?xml version="1.0" standalone="no"?>
<!DOCTYPE svg PUBLIC "-//W3C//DTD SVG 20010904//EN"
 "http://www.w3.org/TR/2001/REC-SVG-20010904/DTD/svg10.dtd">
<svg version="1.0" xmlns="http://www.w3.org/2000/svg"
 width="1024.000000pt" height="1024.000000pt" viewBox="0 0 1024.000000 1024.000000"
 preserveAspectRatio="xMidYMid meet">
<metadata>
Created by potrace 1.11, written by Peter Selinger 2001-2013
</metadata>
<g transform="translate(0.000000,1024.000000) scale(0.100000,-0.100000)"
fill="#000000" stroke="none">
<path d="M4925 9014 c-266 -14 -486 -46 -571 -83 -58 -26 -111 -77 -142 -135
-25 -47 -27 -60 -27 -166 1 -96 6 -137 33 -245 43 -170 49 -232 28 -272 -41
-81 -189 -165 -322 -185 -75 -11 -83 -10 -125 10 -25 12 -105 78 -178 146 -72
69 -159 143 -192 165 -275 184 -528 93 -1011 -365 -156 -148 -211 -222 -313
-424 -96 -191 -135 -350 -116 -468 24 -151 112 -253 359 -416 89 -59 170 -119
180 -134 13 -20 17 -47 17 -117 0 -76 -4 -99 -27 -147 -16 -34 -34 -59 -47
-63 -12 -4 -115 1 -228 10 -246 20 -349 12 -450 -34 -112 -53 -170 -134 -212
-297 -100 -390 -105 -1276 -8 -1533 28 -75 94 -145 166 -172 69 -28 208 -30
351 -5 119 20 183 20 220 1 63 -33 146 -176 181 -314 23 -90 26 -229 5 -270
-19 -36 -71 -82 -173 -154 -191 -135 -258 -228 -258 -363 0 -63 5 -80 43 -157
122 -247 571 -731 858 -925 104 -71 169 -96 249 -97 136 0 224 66 365 276 95
143 159 213 210 231 55 20 280 16 365 -6 92 -24 203 -77 239 -115 38 -40 42
-90 22 -256 -9 -72 -16 -163 -16 -202 0 -116 43 -223 115 -286 111 -97 449
-147 1000 -147 386 0 624 22 775 72 82 27 158 99 183 172 26 77 22 189 -13
341 -44 190 -47 233 -21 288 52 107 229 233 364 257 99 19 119 5 274 -187 130
-162 198 -227 281 -269 50 -26 68 -29 147 -29 83 0 96 3 165 36 244 117 701
600 852 899 73 146 65 270 -26 368 -52 57 -93 84 -246 166 -151 81 -187 113
-196 172 -19 130 77 489 169 629 51 78 63 81 227 51 243 -45 345 -32 431 54
51 51 79 120 101 250 18 105 18 793 0 955 -18 157 -45 296 -73 369 -28 77 -96
146 -164 169 -63 22 -205 22 -316 1 -46 -9 -108 -16 -138 -17 -51 -1 -56 1
-86 36 -80 92 -154 301 -162 458 -5 91 -4 97 18 119 13 12 89 54 168 92 119
57 155 80 202 127 118 118 115 233 -12 442 -166 274 -538 708 -751 876 -113
89 -177 118 -263 118 -136 0 -223 -71 -365 -300 -141 -227 -162 -241 -330
-212 -178 30 -392 116 -527 213 -115 82 -114 86 30 409 76 173 88 279 41 374
-59 117 -207 170 -569 201 -125 11 -639 20 -760 14z m790 -319 c77 -9 167 -21
200 -28 51 -10 60 -15 57 -32 -2 -11 -32 -83 -67 -161 -91 -202 -108 -264
-103 -377 5 -117 33 -171 134 -266 205 -191 640 -353 907 -338 177 9 288 96
441 342 44 70 89 139 101 154 l23 25 43 -28 c63 -41 298 -280 415 -421 176
-212 354 -469 337 -486 -5 -5 -72 -40 -149 -78 -165 -82 -238 -141 -281 -229
-27 -55 -28 -62 -27 -212 1 -170 11 -223 76 -397 71 -188 169 -322 278 -379
77 -39 223 -45 395 -15 101 18 121 19 133 7 18 -17 47 -193 63 -371 22 -260
12 -721 -18 -842 -7 -29 -30 -29 -159 -2 -203 43 -348 24 -443 -57 -114 -98
-233 -358 -292 -636 -32 -149 -32 -340 0 -421 47 -118 133 -197 338 -304 168
-88 160 -80 133 -134 -108 -211 -472 -610 -674 -738 -28 -17 -58 -31 -68 -31
-28 0 -100 72 -204 201 -205 256 -320 319 -527 290 -257 -36 -512 -220 -620
-448 -30 -65 -32 -74 -32 -183 1 -94 7 -140 33 -249 40 -169 41 -197 7 -205
-156 -39 -719 -59 -1027 -37 -190 14 -382 45 -415 66 -29 19 -29 53 -7 238 35
282 -6 417 -159 533 -199 149 -512 217 -780 169 -176 -31 -276 -111 -438 -349
-52 -77 -102 -144 -111 -150 -24 -15 -66 9 -191 109 -196 157 -504 487 -618
663 -27 41 -49 82 -49 92 0 20 53 71 125 120 243 164 315 279 315 504 0 262
-90 495 -255 662 -64 65 -92 86 -140 104 -89 34 -193 37 -385 10 -118 -16
-165 -19 -173 -11 -18 18 -36 146 -49 354 -23 373 24 944 88 1069 24 47 92 54
341 33 244 -20 315 -14 401 36 156 89 247 366 198 600 -31 146 -89 213 -306
356 -264 173 -279 202 -207 394 67 178 159 320 288 443 260 250 477 397 566
383 53 -9 122 -60 262 -192 179 -168 255 -212 386 -222 85 -6 227 17 322 52
191 72 369 243 403 387 18 73 7 209 -30 358 -16 69 -33 150 -36 181 l-7 56 44
11 c66 16 190 32 324 42 175 13 704 4 870 -15z"/>
<path d="M4905 7369 c-433 -115 -667 -204 -895 -339 -370 -219 -583 -465 -839
-968 -209 -412 -304 -752 -304 -1082 2 -536 213 -1019 628 -1435 413 -413 851
-635 1405 -712 156 -21 573 -24 730 -5 663 82 1187 353 1549 803 284 351 426
764 448 1294 19 494 -129 979 -444 1452 -215 322 -473 544 -848 728 -363 179
-550 230 -1030 281 -251 26 -236 27 -400 -17z m385 -284 c314 -32 501 -71 672
-140 442 -181 725 -386 928 -673 307 -434 453 -879 436 -1332 -16 -442 -125
-780 -346 -1075 -298 -398 -728 -637 -1305 -727 -191 -30 -579 -32 -760 -4
-459 70 -814 246 -1157 574 -363 348 -541 697 -588 1158 -17 166 3 338 64 552
112 387 390 894 611 1116 115 116 349 270 524 346 178 77 702 234 751 224 14
-2 90 -11 170 -19z"/>
</g>
</svg>
