<?xml version="1.0" standalone="no"?>
<!DOCTYPE svg PUBLIC "-//W3C//DTD SVG 20010904//EN"
 "http://www.w3.org/TR/2001/REC-SVG-20010904/DTD/svg10.dtd">
<svg version="1.0" xmlns="http://www.w3.org/2000/svg"
 width="1024.000000pt" height="1024.000000pt" viewBox="0 0 1024.000000 1024.000000"
 preserveAspectRatio="xMidYMid meet">
<metadata>
Created by potrace 1.11, written by Peter Selinger 2001-2013
</metadata>
<g transform="translate(0.000000,1024.000000) scale(0.100000,-0.100000)"
fill="#000000" stroke="none">
<path d="M4950 8254 c-30 -2 -298 -8 -595 -14 -664 -11 -812 -28 -1069 -117
-734 -255 -929 -839 -886 -2651 6 -274 16 -859 20 -1302 10 -949 20 -1097 100
-1427 153 -633 495 -938 1165 -1039 169 -26 566 -29 925 -8 347 20 704 22 995
5 243 -14 658 -14 782 0 141 15 275 52 383 105 172 84 285 227 340 427 45 162
52 233 57 527 6 329 -12 589 -46 666 -51 113 -210 113 -265 -1 -18 -37 -19
-46 -6 -169 42 -423 23 -805 -52 -1003 -23 -64 -82 -133 -142 -168 -59 -34
-197 -72 -317 -86 -116 -13 -575 -8 -954 11 -228 12 -308 10 -805 -17 -719
-38 -1110 13 -1368 180 -93 60 -141 105 -201 185 -128 175 -208 415 -251 760
-31 248 -40 454 -40 937 0 248 -7 779 -16 1180 -13 590 -14 786 -5 1025 29
750 120 1136 318 1350 177 191 441 287 878 320 244 18 1363 32 1615 20 357
-17 611 -47 803 -95 283 -72 342 -165 433 -685 24 -134 28 -183 28 -360 1
-113 -5 -276 -13 -362 -13 -151 -13 -158 6 -195 56 -109 207 -112 262 -5 29
58 45 249 45 547 0 240 -2 272 -27 415 -63 349 -104 492 -178 616 -51 87 -162
193 -244 236 -232 120 -663 183 -1315 192 -168 2 -330 2 -360 0z"/>
<path d="M7982 5810 c-61 -38 -88 -116 -62 -184 5 -14 42 -67 83 -118 120
-152 277 -385 277 -412 0 -8 -78 -11 -257 -12 -817 -3 -3086 -24 -3130 -29
-128 -15 -193 -137 -124 -234 47 -66 -69 -62 1538 -50 802 6 1541 14 1643 16
238 6 389 -3 397 -24 11 -29 -104 -234 -204 -366 -166 -217 -163 -213 -163
-271 0 -89 56 -146 145 -146 70 0 101 22 194 139 280 352 406 601 372 736 -77
308 -204 536 -506 910 -6 7 -28 24 -49 39 -48 32 -107 34 -154 6z"/>
</g>
</svg>
